<svg width="237" height="60" viewBox="0 0 237 60" fill="none" xmlns="http://www.w3.org/2000/svg">
<path d="M66.7116 35.937H69.6536C69.8616 35.937 70.0993 35.7921 70.1885 35.5892L75.9536 23.416C76.0724 23.1841 76.1913 23.0682 76.3102 23.0682C76.429 23.0682 76.5479 23.1841 76.6668 23.416L79.3413 29.0968C79.5493 29.5606 79.371 29.8504 78.8658 29.8504H75.8941C75.6564 29.8504 75.4484 29.9953 75.3592 30.1982L74.1408 32.7488C74.0517 32.9517 74.1408 33.0966 74.3786 33.0966H80.3814C80.8866 33.0966 81.3621 33.3864 81.5701 33.8212L82.4022 35.5892C82.4913 35.7921 82.729 35.937 82.9668 35.937H85.8791C86.1168 35.937 86.2059 35.7921 86.1168 35.5892L76.7262 15.6193C76.6668 15.4744 76.4885 15.3585 76.3102 15.3585C76.1319 15.3585 75.9239 15.4744 75.8644 15.6193L66.4739 35.5892C66.3847 35.7921 66.4739 35.937 66.7116 35.937Z" fill="black"/>
<path d="M89.9849 18.8945H95.6014C104.754 18.8945 104.992 31.8213 96.4632 32.6328C96.1363 32.6618 95.6311 32.6618 94.7693 32.6618H93.9967C93.4915 32.6618 93.1646 32.343 93.1646 31.8503V16.5683C93.1646 16.3365 93.016 16.1915 92.7783 16.1915H89.9849C89.7471 16.1915 89.5986 16.3365 89.5986 16.5683V35.5602C89.5986 35.7921 89.7471 35.937 89.9849 35.937H94.9179C95.7203 35.937 96.2849 35.937 96.6118 35.908C103.12 35.3283 106.389 30.633 106.389 25.7927C106.389 20.9524 103.12 16.1121 96.6118 15.6773C96.2849 15.6483 95.7203 15.6483 94.9179 15.6483H89.9849C89.7471 15.6483 89.5986 15.7932 89.5986 16.0251V18.5177C89.5986 18.7496 89.7471 18.8945 89.9849 18.8945Z" fill="black"/>
<path d="M109.395 15.9961L118.786 35.966C118.875 36.1399 119.053 36.2268 119.232 36.2268C119.41 36.2268 119.558 36.1399 119.648 35.966L120.925 33.2125C121.015 33.0096 121.015 32.7488 120.925 32.5459L113.11 15.9961C113.021 15.7932 112.783 15.6483 112.575 15.6483H109.633C109.395 15.6483 109.306 15.7932 109.395 15.9961ZM118.653 30.8004L120.198 34.0756C120.287 34.2785 120.436 34.2785 120.525 34.0756L129.038 15.9961C129.127 15.7932 129.038 15.6483 128.8 15.6483H125.888C125.65 15.6483 125.413 15.7932 125.323 15.9961L118.653 30.1048C118.564 30.3077 118.564 30.5976 118.653 30.8004Z" fill="black"/>
<path d="M132.044 25.7927C132.044 32.8647 137.393 36.4007 142.772 36.4007C148.121 36.4007 153.47 32.8647 153.47 25.7927C153.47 18.7206 148.121 15.1846 142.772 15.1846C137.393 15.1846 132.044 18.7206 132.044 25.7927ZM135.551 25.7927C135.551 21.0393 139.147 18.6916 142.772 18.6916C146.368 18.6916 149.993 21.0393 149.993 25.7927C149.993 30.546 146.368 32.8937 142.772 32.8937C139.147 32.8937 135.551 30.546 135.551 25.7927Z" fill="black"/>
<path d="M157.031 25.7927C157.031 31.0677 160.597 36.3718 167.759 36.3718C170.344 36.3718 172.068 35.7631 173.673 34.5458C173.851 34.4298 173.881 34.198 173.762 34.0241L172.127 31.8213C172.008 31.6474 171.8 31.6184 171.622 31.7633C170.909 32.343 169.72 32.9227 167.789 32.9227C158.428 32.9227 158.428 18.6626 167.789 18.6626C169.364 18.6626 170.701 19.2423 171.592 19.88C171.8 20.0249 171.979 19.9959 172.127 19.793L173.732 17.5612C173.851 17.3873 173.851 17.1555 173.643 17.0395C171.83 16.0251 169.839 15.2136 167.759 15.2136C160.597 15.2136 157.031 20.4886 157.031 25.7927Z" fill="black"/>
<path d="M177.396 35.937H180.338C180.546 35.937 180.784 35.7921 180.873 35.5892L186.638 23.416C186.757 23.1841 186.876 23.0682 186.994 23.0682C187.113 23.0682 187.232 23.1841 187.351 23.416L190.026 29.0968C190.234 29.5606 190.055 29.8504 189.55 29.8504H186.578C186.341 29.8504 186.133 29.9953 186.043 30.1982L184.825 32.7488C184.736 32.9517 184.825 33.0966 185.063 33.0966H191.066C191.571 33.0966 192.046 33.3864 192.254 33.8212L193.086 35.5892C193.176 35.7921 193.413 35.937 193.651 35.937H196.563C196.801 35.937 196.89 35.7921 196.801 35.5892L187.41 15.6193C187.351 15.4744 187.173 15.3585 186.994 15.3585C186.816 15.3585 186.608 15.4744 186.549 15.6193L177.158 35.5892C177.069 35.7921 177.158 35.937 177.396 35.937Z" fill="black"/>
<path d="M199.807 25.7927C199.807 31.0677 203.373 36.3718 210.535 36.3718C213.12 36.3718 214.844 35.7631 216.449 34.5458C216.627 34.4298 216.657 34.198 216.538 34.0241L214.904 31.8213C214.785 31.6474 214.577 31.6184 214.398 31.7633C213.685 32.343 212.496 32.9227 210.565 32.9227C201.204 32.9227 201.204 18.6626 210.565 18.6626C212.14 18.6626 213.477 19.2423 214.369 19.88C214.577 20.0249 214.755 19.9959 214.904 19.793L216.508 17.5612C216.627 17.3873 216.627 17.1555 216.419 17.0395C214.606 16.0251 212.615 15.2136 210.535 15.2136C203.373 15.2136 199.807 20.4886 199.807 25.7927Z" fill="black"/>
<path d="M219.964 15.9671L226.264 27.1549C226.502 27.5897 226.65 28.1983 226.65 28.691V35.5602C226.65 35.7921 226.799 35.937 227.037 35.937H229.83C230.068 35.937 230.216 35.7921 230.216 35.5602V27.7346C230.216 27.5027 230.127 27.2129 230.038 27.039L223.797 15.9671C223.708 15.7932 223.471 15.6483 223.233 15.6483H220.172C219.934 15.6483 219.875 15.7932 219.964 15.9671ZM229.563 22.8363L231.048 25.3869C231.167 25.5898 231.316 25.5898 231.435 25.3869L236.903 15.9671C237.022 15.7642 236.932 15.6483 236.695 15.6483H233.634C233.426 15.6483 233.158 15.7932 233.069 15.9671L229.563 22.1987C229.444 22.4015 229.473 22.6624 229.563 22.8363Z" fill="black"/>
<circle cx="44.015" cy="22.717" r="3.54954" fill="#FF173D"/>
<path fill-rule="evenodd" clip-rule="evenodd" d="M22.4439 5.30433C26.4632 -1.6598 36.4677 -1.79299 40.6711 5.06169L49.9011 20.1137C51.8394 23.2747 50.8483 27.4085 47.6873 29.3468C44.5263 31.2852 40.9853 30.1374 39.047 26.9765L35.4974 19.8774C35.4974 19.8774 33.8165 15.8316 31.9479 15.9729C30.0793 16.1143 30.1731 17.3927 26.9785 23.072C24.9613 26.3851 25.8808 25.2928 21.9927 31.9914C18.1047 38.6899 20.144 39.5842 20.7442 39.3006C25.101 37.2419 30.1634 35.0602 35.2568 33.9102C40.3289 32.765 46.2274 32.4589 51.7303 35.0963C57.4178 37.8223 61.3962 43.0601 63.7879 50.3255C64.9473 53.8475 63.032 57.6426 59.51 58.802C55.988 59.9614 52.1929 58.0461 51.0335 54.5241C49.4255 49.6394 47.4067 47.9144 45.9268 47.2051C44.2622 46.4073 41.823 46.1934 38.2141 47.0082C34.6265 47.8182 30.6646 49.4642 26.481 51.4411C25.1913 52.0506 23.8197 52.7234 22.4322 53.404C19.6814 54.7534 16.8683 56.1333 14.5085 57.1099C12.4101 57.9783 9.84096 58.4877 7.18958 57.798C4.35589 57.0608 2.25041 55.1576 1.09505 52.8034C-0.990269 48.5543 0.23414 43.7858 2.15244 40.462L22.4439 5.30433ZM9.26367 44.7433C9.26367 44.7433 9.26991 44.741 9.28192 44.7378C9.2696 44.7419 9.26367 44.7433 9.26367 44.7433Z" fill="url(#paint0_linear)"/>
<path d="M29.4606 18.4576C30.1686 17.1636 30.9584 16.3213 31.9812 16.244C33.8498 16.1026 35.5308 20.1485 35.5308 20.1485L39.0803 27.2475C41.0186 30.4085 44.5596 31.5562 47.7206 29.6179C50.8816 27.6796 51.8727 23.5457 49.9344 20.3848L40.7044 5.33275C35.8497 1.77479 32.2529 11.1195 29.4606 18.4576Z" fill="url(#paint1_linear)"/>
<path fill-rule="evenodd" clip-rule="evenodd" d="M17.3875 40.9179C18.4362 40.4046 19.5477 39.8655 20.737 39.3034C25.0939 37.2447 30.1562 35.063 35.2497 33.913C40.3218 32.7678 46.2203 32.4616 51.7232 35.0991C57.4107 37.8251 61.389 43.0629 63.7807 50.3283C64.9402 53.8503 63.0249 57.6453 59.5029 58.8048C55.9809 59.9642 52.1858 58.0489 51.0264 54.5269C49.4183 49.6422 47.3996 47.9172 45.9196 47.2078C44.2551 46.4101 41.8158 46.1962 38.2069 47.011C34.6193 47.821 30.6575 49.467 26.4738 51.4439C25.1842 52.0534 23.8125 52.7262 22.4251 53.4068C19.6743 54.7562 16.8612 56.1361 14.5014 57.1127C12.4029 57.9811 9.83382 58.4905 7.18243 57.8008C4.34874 57.0636 2.24327 55.1603 1.08791 52.8062C-0.99741 48.5571 0.226999 43.7886 2.1453 40.4648L8.27136 29.8506C6.61654 38.8024 10.6059 43.4729 17.3875 40.9179Z" fill="url(#paint2_linear)"/>
<path d="M48.3584 41.7212C37.1687 45.4187 22.4761 53.1056 22.4761 53.1056C40.0706 46.6262 42.8886 49.001 51.4729 56.2352L51.5694 56.3165C54.1092 58.5555 55.7515 59.3516 57.9913 59.1383C63.1483 58.3599 64.5106 54.9543 64.0241 50.8676C63.5375 46.7809 59.5482 38.0237 48.3584 41.7212Z" fill="url(#paint3_linear)"/>
<path d="M121.763 55.7272C123.319 55.7272 124.501 54.3983 124.501 52.774C124.501 51.1497 123.319 49.8208 121.763 49.8208C120.946 49.8208 120.253 50.241 119.935 50.6954V47.0947H118.685V55.6136H119.935V54.8526C120.253 55.3069 120.946 55.7272 121.763 55.7272ZM121.536 54.5913C120.525 54.5913 119.832 53.7963 119.832 52.774C119.832 51.7517 120.525 50.9566 121.536 50.9566C122.536 50.9566 123.229 51.7517 123.229 52.774C123.229 53.7963 122.536 54.5913 121.536 54.5913Z" fill="black"/>
<path d="M127.457 57.9875L131.103 49.9344H129.718L127.969 53.9553L126.231 49.9344H124.856L127.298 55.3069L126.083 57.9875H127.457Z" fill="black"/>
<path d="M140.821 56.5545C143.608 56.5545 145.437 55.0245 146.195 52.9279H143.722C143.151 53.8204 142.15 54.3729 140.992 54.3729C139.163 54.3729 138.219 53.2254 138.219 51.6105C138.219 49.7689 139.649 48.3381 141.493 48.3381C142.765 48.3381 143.608 48.8764 144.008 49.783H146.481C146.023 47.7006 144.308 46.1565 141.664 46.1565C138.034 46.1565 135.918 48.763 135.918 51.8088C135.918 54.4579 137.733 56.5545 140.821 56.5545Z" fill="black"/>
<path d="M149.238 56.4978C150.267 56.4978 150.839 56.1153 151.168 55.832L151.054 56.3845H153.212L154.727 49.3014H152.569L152.383 50.208C152.14 49.8113 151.382 49.1455 150.182 49.1455C148.123 49.1455 146.508 50.9022 146.508 53.3671C146.508 55.0954 147.58 56.4978 149.238 56.4978ZM150.053 54.6562C149.138 54.6562 148.667 54.0612 148.667 53.1546C148.667 51.993 149.424 51.0863 150.496 51.0863C151.411 51.0863 151.883 51.6813 151.883 52.5879C151.883 53.7496 151.125 54.6562 150.053 54.6562Z" fill="black"/>
<path d="M153.929 59.3452H156.087L156.902 55.4778C157.131 55.8887 157.903 56.5403 159.103 56.5403C161.161 56.5403 162.777 54.7837 162.777 52.3188C162.777 50.5905 161.705 49.188 160.047 49.188C159.017 49.188 158.446 49.5705 158.117 49.8538L158.231 49.3014H156.073L153.929 59.3452ZM158.789 54.5995C157.874 54.5995 157.402 54.0046 157.402 53.0979C157.402 51.9363 158.16 51.0296 159.232 51.0296C160.147 51.0296 160.618 51.6246 160.618 52.5313C160.618 53.6929 159.861 54.5995 158.789 54.5995Z" fill="black"/>
<path d="M162.937 56.3845H165.095L166.61 49.3014H164.452L162.937 56.3845ZM166.024 48.3381C166.782 48.3381 167.382 47.7431 167.382 47.0064C167.382 46.2698 166.782 45.6748 166.024 45.6748C165.295 45.6748 164.681 46.2698 164.681 47.0064C164.681 47.7431 165.295 48.3381 166.024 48.3381Z" fill="black"/>
<path d="M170.16 56.4553C170.661 56.4695 171.032 56.4128 171.332 56.3137L171.747 54.4154C171.475 54.5145 171.261 54.5429 170.932 54.5429C170.232 54.5429 169.789 54.2454 169.975 53.3529L170.446 51.1571H172.447L172.847 49.3014H170.846L171.261 47.3323H169.103L168.688 49.3014H167.259L166.859 51.1571H168.288L167.845 53.2254C167.43 55.2087 168.474 56.4128 170.16 56.4553Z" fill="black"/>
<path d="M176.074 54.557C175.16 54.557 174.631 53.9479 174.631 52.9988C174.631 51.9646 175.36 51.143 176.36 51.143C177.275 51.143 177.804 51.7521 177.804 52.7013C177.804 53.7354 177.075 54.557 176.074 54.557ZM175.888 56.5545C178.347 56.5545 179.976 54.7979 179.976 52.5171C179.976 50.7747 178.833 49.1455 176.546 49.1455C174.088 49.1455 172.458 50.9021 172.458 53.1829C172.458 54.9254 173.602 56.5545 175.888 56.5545Z" fill="black"/>
<path d="M180.145 56.3845H182.303L184.576 45.7598H182.417L180.145 56.3845Z" fill="black"/>
<path d="M187.416 56.566H193.839L194.295 54.3762H190.142L190.527 52.5466H193.824L194.295 50.3569H190.998L191.384 48.5273H195.537L195.994 46.3375H189.571L187.416 56.566Z" fill="black"/>
<path d="M194.818 56.566H196.973L197.715 53.0365C197.987 51.7255 198.586 51.1636 199.442 51.1636C200.227 51.1636 200.584 51.7687 200.37 52.7483L199.571 56.566H201.726L202.568 52.5754C202.911 50.9619 202.197 49.2188 200.384 49.2188C199.514 49.2188 198.786 49.6077 198.343 50.0687L198.486 49.3628H196.331L194.818 56.566Z" fill="black"/>
<path d="M207.216 59.5769H209.385L211.498 49.3628H209.357L209.157 50.3281C208.914 49.9247 208.158 49.2476 206.959 49.2476C204.903 49.2476 203.291 51.034 203.291 53.5407C203.291 55.2982 204.361 56.7245 206.017 56.7245C207.044 56.7245 207.615 56.3355 207.944 56.0474L207.216 59.5769ZM206.83 54.8517C205.917 54.8517 205.446 54.2466 205.446 53.3246C205.446 52.1433 206.202 51.2213 207.273 51.2213C208.186 51.2213 208.657 51.8263 208.657 52.7483C208.657 53.9296 207.901 54.8517 206.83 54.8517Z" fill="black"/>
<path d="M214.112 56.7101C214.982 56.7101 215.582 56.3355 215.967 55.8601L215.825 56.566H217.98L219.493 49.3628H217.338L216.581 52.9788C216.338 54.1457 215.81 54.7364 214.968 54.7364C214.24 54.7364 213.883 54.2034 214.069 53.3246L214.897 49.3628H212.742L211.9 53.3534C211.557 54.9237 212.399 56.7101 214.112 56.7101Z" fill="black"/>
<path d="M219.32 56.566H221.475L222.988 49.3628H220.833L219.32 56.566ZM222.403 48.3832C223.159 48.3832 223.758 47.7781 223.758 47.029C223.758 46.2799 223.159 45.6748 222.403 45.6748C221.675 45.6748 221.061 46.2799 221.061 47.029C221.061 47.7781 221.675 48.3832 222.403 48.3832Z" fill="black"/>
<path d="M222.822 56.566H224.977L225.691 53.1517C225.919 52.1144 226.576 51.3941 227.546 51.3941C227.818 51.3941 228.117 51.4518 228.431 51.567L228.888 49.3628C228.645 49.2908 228.431 49.2764 228.217 49.2764C227.361 49.2764 226.604 49.7086 226.276 50.3569L226.49 49.3628H224.335L222.822 56.566Z" fill="black"/>
<path d="M228.037 59.5769H230.406L237 49.3628H234.559L231.762 53.9008L230.877 49.3628H228.75L230.277 56.1194L228.037 59.5769Z" fill="black"/>
<defs>
<linearGradient id="paint0_linear" x1="32.0667" y1="0" x2="11.1922" y2="59.2359" gradientUnits="userSpaceOnUse">
<stop offset="0.150683" stop-color="#FF173D"/>
<stop offset="0.41649" stop-color="#EC1438"/>
<stop offset="0.859442" stop-color="#78063C"/>
</linearGradient>
<linearGradient id="paint1_linear" x1="40.4641" y1="34.4305" x2="23.5133" y2="27.82" gradientUnits="userSpaceOnUse">
<stop offset="0.150683" stop-color="#FF173D"/>
<stop offset="0.465184" stop-color="#EC1438"/>
<stop offset="0.859442" stop-color="#78063C"/>
</linearGradient>
<linearGradient id="paint2_linear" x1="39.31" y1="44.4459" x2="5.39996" y2="37.0443" gradientUnits="userSpaceOnUse">
<stop offset="0.271764" stop-color="#FF173D"/>
<stop offset="1" stop-color="#FF173D" stop-opacity="0.37"/>
</linearGradient>
<linearGradient id="paint3_linear" x1="64.9971" y1="66.2413" x2="33.6487" y2="47.39" gradientUnits="userSpaceOnUse">
<stop offset="0.150683" stop-color="#FF173D"/>
<stop offset="0.41649" stop-color="#EC1438"/>
<stop offset="0.859442" stop-color="#78063C"/>
</linearGradient>
</defs>
</svg>
