<svg width="232" height="257" viewBox="0 0 232 257" fill="none" xmlns="http://www.w3.org/2000/svg">
<path d="M39.2273 192.997L51.8409 213.52V227.906H56.0682V213.52L68.6818 192.997H63.8409L54.1591 209.293H53.75L44.0682 192.997H39.2273ZM74.1491 227.906H95.4901V224.156H78.3764V212.293H94.1264V208.543H78.3764V196.747H95.2173V192.997H74.1491V227.906ZM104.268 227.906L107.78 218.02H121.893L125.405 227.906H129.837L117.018 192.997H112.655L99.8366 227.906H104.268ZM109.109 214.27L114.7 198.52H114.973L120.564 214.27H109.109ZM135.274 227.906H139.501V214.27H147.138C147.445 214.27 147.734 214.27 148.024 214.253L155.388 227.906H160.297L152.405 213.486C156.854 211.969 158.933 208.338 158.933 203.702C158.933 197.531 155.251 192.997 147.07 192.997H135.274V227.906ZM139.501 210.452V196.747H146.933C152.592 196.747 154.774 199.509 154.774 203.702C154.774 207.895 152.592 210.452 147.001 210.452H139.501ZM185.068 201.724H189.159C188.972 196.457 184.114 192.52 177.364 192.52C170.682 192.52 165.432 196.406 165.432 202.27C165.432 206.974 168.841 209.77 174.295 211.338L178.591 212.565C182.273 213.588 185.545 214.884 185.545 218.361C185.545 222.179 181.864 224.702 177.023 224.702C172.864 224.702 169.182 222.861 168.841 218.906H164.477C164.886 224.634 169.523 228.52 177.023 228.52C185.068 228.52 189.636 224.088 189.636 218.429C189.636 211.884 183.432 209.77 179.818 208.815L176.273 207.861C173.682 207.179 169.523 205.815 169.523 202.065C169.523 198.724 172.591 196.27 177.227 196.27C181.455 196.27 184.659 198.281 185.068 201.724Z" fill="white"/>
<line y1="250.395" x2="231.009" y2="250.395" stroke="white"/>
<path d="M59 85.5718V77.8648L95.5851 30H105.489V77.5606H116V85.5718H105.489V102H96.1915V85.5718H59ZM96.7979 41.2563L68.7021 77.5606H96.7979V41.2563Z" fill="white"/>
<path d="M194.5 79C194.5 121.776 159.157 156.5 115.5 156.5C71.8428 156.5 36.5 121.776 36.5 79C36.5 36.2244 71.8428 1.5 115.5 1.5C159.157 1.5 194.5 36.2244 194.5 79Z" stroke="white" stroke-width="3"/>
<path d="M123.475 106.583C124.095 110.949 125.612 114.311 128.024 116.668C130.436 119.024 133.744 120.202 137.948 120.202C143.738 120.202 148.114 117.95 151.078 113.445C154.041 108.939 155.523 101.8 155.523 92.0274C155.523 90.1559 155.488 88.7351 155.419 87.7647C154.455 91.9234 152.111 95.2503 148.39 97.7456C144.668 100.241 140.292 101.488 135.26 101.488C128.024 101.488 122.338 99.3051 118.203 94.9384C114.068 90.5718 112 84.4724 112 76.6402C112 72.0657 112.896 67.907 114.688 64.1642C116.48 60.4213 119.202 57.4756 122.855 55.3269C126.577 53.109 131.16 52 136.604 52C147.08 52 154.248 55.2576 158.107 61.7729C162.036 68.2189 164 77.0907 164 88.3885C164 101.28 162.001 111.123 158.004 117.915C154.007 124.638 147.321 128 137.948 128C130.987 128 125.508 126.025 121.511 122.074C117.583 118.054 115.274 112.89 114.584 106.583H123.475ZM154.489 78.0958C154.489 73.1053 153.007 68.8773 150.044 65.4118C147.149 61.9462 142.773 60.2134 136.915 60.2134C132.09 60.2134 128.231 61.6689 125.336 64.58C122.441 67.4911 120.994 71.5458 120.994 76.7442C120.994 82.2891 122.441 86.5518 125.336 89.5322C128.231 92.5125 132.194 94.0027 137.225 94.0027C140.119 94.0027 142.876 93.4136 145.495 92.2353C148.183 91.057 150.354 89.2549 152.008 86.829C153.662 84.4031 154.489 81.492 154.489 78.0958Z" fill="white"/>
</svg>
